<svg width="32" height="34" viewBox="0 0 32 34" fill="none" xmlns="http://www.w3.org/2000/svg">
<path d="M19.7475 21.6569C19.6888 21.1414 19.5125 20.769 19.1598 20.4253C18.4987 19.7521 17.3381 19.3081 15.9717 19.3081C14.6054 19.3081 13.4448 19.7378 12.7836 20.4253C12.4457 20.7833 12.2547 21.1414 12.196 21.6569C12.0784 22.6595 12.1519 23.5188 12.2694 24.9081C12.3869 26.2256 12.6073 27.9872 12.8864 29.7631C13.0921 31.0378 13.2538 31.7253 13.4007 32.2122C13.6505 33.0143 14.5466 33.7017 15.9717 33.7017C17.3968 33.7017 18.3077 32.9999 18.5428 32.2122C18.6897 31.7253 18.8513 31.0378 19.057 29.7631C19.3362 27.9729 19.5565 26.2256 19.674 24.9081C19.8063 23.5188 19.865 22.6595 19.7475 21.6569Z" fill="#1C1C3B"/>
<path d="M19.5806 14.3525C19.5806 16.3003 17.9645 17.8758 15.9665 17.8758C13.9684 17.8758 12.3523 16.3003 12.3523 14.3525C12.3523 12.4048 13.9684 10.8294 15.9665 10.8294C17.9645 10.8294 19.5806 12.4191 19.5806 14.3525Z" fill="#1C1C3B"/>
<path d="M15.9268 0.474632C7.49366 0.503276 0.588547 7.17725 0.471039 15.398C0.382875 22.0577 4.74629 27.7579 10.8435 29.8488C10.9904 29.9061 11.1373 29.7772 11.1226 29.6339C11.049 29.1183 10.9609 28.6028 10.9021 28.0872C10.8728 27.901 10.7552 27.7579 10.5937 27.6719C5.7747 25.6239 2.41031 20.912 2.46906 15.4553C2.54253 8.29438 8.5368 2.46533 15.868 2.40804C23.3754 2.35075 29.5019 8.28005 29.5019 15.5842C29.5019 20.9836 26.1523 25.6239 21.3774 27.6719C21.2011 27.7435 21.0836 27.901 21.0689 28.0872C20.9954 28.6028 20.922 29.1183 20.8485 29.6339C20.8191 29.7915 20.9807 29.9061 21.1277 29.8488C27.166 27.7865 31.5001 22.1722 31.5001 15.5842C31.4706 7.24887 24.4921 0.46031 15.9268 0.474632Z" fill="#1C1C3B"/>
<path d="M15.5712 5.48676C10.0765 5.68727 5.66898 10.1127 5.59551 15.4691C5.55147 18.9923 7.35853 22.1144 10.1352 23.962C10.2675 24.0479 10.4585 23.9477 10.4585 23.7902C10.4144 23.1743 10.4144 22.6301 10.4438 22.0572C10.4585 21.871 10.385 21.6992 10.2381 21.5702C8.54857 20.0235 7.52015 17.818 7.5789 15.3832C7.69641 11.0866 11.2372 7.59209 15.6446 7.42023C20.4342 7.23404 24.3716 10.9864 24.3716 15.5981C24.3716 17.9468 23.3432 20.0665 21.7124 21.5702C21.5802 21.6992 21.5067 21.871 21.5067 22.0572C21.536 22.6157 21.5214 23.1599 21.492 23.7758C21.4773 23.9333 21.6683 24.0479 21.8153 23.9477C24.5479 22.1288 26.355 19.0496 26.355 15.5837C26.3697 9.8836 21.4773 5.25761 15.5712 5.48676Z" fill="#1C1C3B"/>
</svg>
