<svg width="11" height="11" viewBox="0 0 11 11" fill="none" xmlns="http://www.w3.org/2000/svg">
<path d="M9.211 4.36486L2.737 1.12686C2.55398 1.03528 2.35058 0.992023 2.14614 1.00121C1.94169 1.0104 1.74299 1.07172 1.56892 1.17934C1.39485 1.28697 1.2512 1.43733 1.15163 1.61612C1.05205 1.79492 0.999854 1.99621 1 2.20086V8.31686C0.999854 8.52151 1.05205 8.7228 1.15163 8.9016C1.2512 9.08039 1.39485 9.23075 1.56892 9.33838C1.74299 9.446 1.94169 9.50732 2.14614 9.51651C2.35058 9.5257 2.55398 9.48244 2.737 9.39086L9.211 6.15286C9.37688 6.06972 9.51636 5.94207 9.61383 5.78418C9.71131 5.6263 9.76293 5.44441 9.76293 5.25886C9.76293 5.07331 9.71131 4.89142 9.61383 4.73353C9.51636 4.57565 9.37688 4.448 9.211 4.36486Z" stroke="white" stroke-linecap="round" stroke-linejoin="round"/>
</svg>
