<svg width="38" height="20" viewBox="0 0 38 20" fill="none" xmlns="http://www.w3.org/2000/svg">
<path d="M32.6783 8.86048C31.9183 8.86048 31.1583 9.05048 30.5864 9.24048C30.2083 4.49048 26.0283 0.69043 21.0864 0.69043C19.9464 0.69043 18.8064 0.880429 17.8564 1.26043C17.4783 1.45043 17.2883 1.64043 17.2883 1.64043V19.5005H32.4883C35.5302 19.5005 37.8102 17.2205 37.8102 14.1805C37.9983 11.3305 35.5283 8.86048 32.6783 8.86048Z" fill="#1C1C3B"/>
<path d="M11.4019 3.35012H14.2519V19.5001H11.4019V3.35012Z" fill="#1C1C3B"/>
<path d="M5.70093 6.2H8.55093V19.5H5.70093V6.2Z" fill="#1C1C3B"/>
<path d="M0 10.0002H2.85V19.5002H0V10.0002Z" fill="#1C1C3B"/>
</svg>
