<svg width="32" height="21" viewBox="0 0 32 21" fill="none" xmlns="http://www.w3.org/2000/svg">
<path d="M25.2525 19.8521C24.9787 20.3357 24.4654 20.612 23.9349 20.612C23.6782 20.612 23.4044 20.543 23.1648 20.4048C19.1777 18.0558 14.5745 17.6759 11.4258 17.7795C7.93488 17.8831 5.36803 18.5913 5.33381 18.5913C4.52953 18.8158 3.69103 18.3322 3.46857 17.5204C3.24611 16.7087 3.72525 15.8624 4.52953 15.6378C4.64931 15.6033 7.40439 14.8433 11.2547 14.7224C13.5135 14.6534 15.6868 14.8088 17.7231 15.1888C20.29 15.6896 22.6515 16.5532 24.7049 17.7622C25.4237 18.194 25.6632 19.1267 25.2525 19.8521Z" fill="#1C1C3B"/>
<path d="M28.0599 13.9449C27.7348 14.5148 27.1187 14.843 26.5027 14.843C26.1947 14.843 25.8866 14.7566 25.5957 14.6012C20.8727 11.8205 15.431 11.3714 11.6834 11.4923C7.54224 11.6132 4.49625 12.4423 4.46203 12.4595C3.50374 12.7186 2.51123 12.1486 2.25454 11.1987C1.99786 10.2315 2.54545 9.24707 3.50374 8.97072C3.64064 8.93618 6.90909 8.03806 11.461 7.88262C14.1476 7.79626 16.7144 7.98624 19.1273 8.4353C22.1733 9.02254 24.9626 10.0415 27.3925 11.475C28.2481 11.9759 28.539 13.0813 28.0428 13.9449H28.0599Z" fill="#1C1C3B"/>
<path d="M29.8049 8.57389C29.4284 8.57389 29.0519 8.47027 28.6926 8.26301C17.4669 1.66528 2.92145 5.58592 2.78455 5.63773C1.60381 5.96589 0.405949 5.27503 0.0808148 4.08329C-0.244319 2.89156 0.440173 1.68255 1.62092 1.35439C1.79204 1.30257 5.79632 0.214463 11.3749 0.0244762C14.6605 -0.0791531 17.8263 0.145377 20.7696 0.715338C24.5001 1.42348 27.9225 2.6843 30.9001 4.446C31.9439 5.06777 32.3033 6.43222 31.6872 7.48579C31.2765 8.19392 30.5407 8.59117 29.7878 8.59117L29.8049 8.57389Z" fill="#1C1C3B"/>
</svg>
